# xmcd
#
# Track frame offsets:
#	151
#	23390
#	62612
#	89024
#	132692
#	160988
#	175218
#	204784
#	227134
#	250915
#	279151
#
# Disc length: 4052 seconds
#
# Revision: 1
# Processed by: cddbd v1.4PL0 Copyright (c) Steve Scherf et al.
# Submitted via: audiograbber 1.80.04
#
DISCID=8e0fd20b
DTITLE=TW Henderson - The Wilderness Years
DYEAR=1900
DGENRE=
TTITLE0=Song For My Father
TTITLE1=Black and White
TTITLE2=Shooter (Billy's Just A Kid)
TTITLE3=Don't Deny Me Baby
TTITLE4=In-City Blues
TTITLE5=Take A Turn For The Nurse
TTITLE6=Texas Special
TTITLE7=18th Birthday Blues
TTITLE8=There Must Be Something In The Water
TTITLE9=It Wasn't Me Who Brought The Tears
TTITLE10=Howl Into The Midnight
EXTD=
EXTT0=
EXTT1=
EXTT2=
EXTT3=
EXTT4=
EXTT5=
EXTT6=
EXTT7=
EXTT8=
EXTT9=
EXTT10=
PLAYORDER=
